<svg xmlns="http://www.w3.org/2000/svg" xml:space="preserve" version="1.0" viewBox="0 0 522.035 27.035"><path style="fill-rule:evenodd;fill:#5200ff" d="M4.518 4.518H517.52v18H4.518z"/><path style="stroke:#fcfbfc;stroke-width:.036;stroke-miterlimit:10;fill-rule:evenodd;fill:#fcfbfc" d="M4.518 4.518h9v9h-9zm18 0h9v9h-9zm18 0h9v9h-9zm18 0h9v9h-9zm18 0h9v9h-9zm18 0h9.002v9h-9.002zm18.002 0h9v9h-9zm18 0h9v9h-9zm18 0h9v9h-9zm18 0h9v9h-9zm18 0h9v9h-9zm18 0h9v9h-9zm18 0h9v9h-9zm18 0h9v9h-9zm18 0h9v9h-9zm18 0h9v9h-9zm18 0h9v9h-9zm18 0h9v9h-9zm18 0h9v9h-9zm18 0h9v9h-9zm18 0h9v9h-9zm18 0h9v9h-9zm18 0h9v9h-9zm18 0h9v9h-9zm18 0h9v9h-9zm18 0h9v9h-9zm18 0h9v9h-9zm18 0h9v9h-9zm18 0h9v9h-9zm-495.002 9h9v9h-9zm18 0h9v9h-9zm18 0h9v9h-9zm18 0h9v9h-9zm18 0h9v9h-9zm18.002 0h9v9h-9zm18 0h9v9h-9zm18 0h9v9h-9zm18 0h9v9h-9zm18 0h9v9h-9zm18 0h9v9h-9zm18 0h9v9h-9zm18 0h9v9h-9zm18 0h9v9h-9zm18 0h9v9h-9zm18 0h9v9h-9zm18 0h9v9h-9zm18 0h9v9h-9zm18 0h9v9h-9zm18 0h9v9h-9zm18 0h9v9h-9zm18 0h9v9h-9zm18 0h9v9h-9zm18 0h9v9h-9zm18 0h9v9h-9zm18 0h9v9h-9zm18 0h9v9h-9zm18 0h9v9h-9z"/></svg>