<!DOCTYPE svg PUBLIC "-//W3C//DTD SVG 1.1//EN" "http://www.w3.org/Graphics/SVG/1.1/DTD/svg11.dtd">
<svg xmlns="http://www.w3.org/2000/svg" viewBox="0 0 310 311">
<path d="M154.728 10c-.357 2.475-1.367 13.05-2.245 23.5-7.477 88.96-23.045 107.926-95.983 116.938-11.581 1.431-43.074 4.315-51 4.671-1.65.074 6.45.958 18 1.964 107.247 9.343 120.693 22.256 129.404 124.271 1.073 12.564 2.125 23.018 2.338 23.231.213.213.943-7.366 1.621-16.844 7.835-109.427 21.93-122.518 141.637-131.546l10-.754-10-.744C177.258 145.663 165.376 134.045 156.154 15.5c-.678-8.708-.862-9.419-1.426-5.5" fill-rule="evenodd"/>
</svg>