<!DOCTYPE svg PUBLIC "-//W3C//DTD SVG 1.1//EN" "http://www.w3.org/Graphics/SVG/1.1/DTD/svg11.dtd">
<svg xmlns="http://www.w3.org/2000/svg" viewBox="0 0 324 133">
<path d="M140 2.101C60.653 9.353 1.144 38.037 1.022 69.09.97 82.33 14.309 97.168 32.857 104.503c3.55 1.404 3.579 1.397 1.143-.267C-25.52 63.568 62.009 7.613 185 7.705c33.563.026 61.24 3.795 86.5 11.78 1.1.348.269-.327-1.846-1.499-9.444-5.236-32.805-11.289-56.219-14.568C200.095 1.55 154.902.739 140 2.101m150.5 27.085c21.96 16.604 24.529 33.4 7.793 50.946-39.485 41.395-169.553 59.356-244.207 33.722-9.491-3.259-6.604-1.208 4.303 3.056 84.876 33.185 238.526 8.588 262.05-41.951 6.201-13.321.776-27.634-14.365-37.904-6.771-4.593-20.245-11.401-15.574-7.869" fill-rule="evenodd"/>
</svg>