<?xml version="1.0" encoding="UTF-8" standalone="no"?>
<!-- Created with Inkscape (http://www.inkscape.org/) -->

<svg
   width="115.09555mm"
   height="103.01114mm"
   viewBox="0 0 115.09555 103.01114"
   version="1.1"
   id="svg1"
   xmlns="http://www.w3.org/2000/svg"
   xmlns:svg="http://www.w3.org/2000/svg">
  <defs
     id="defs1" />
  <g
     id="layer1"
     transform="translate(-44.31657,-66.984191)">
    <path
       style="baseline-shift:baseline;display:inline;overflow:visible;opacity:1;vector-effect:none;fill:#ffffff;stroke-linecap:round;enable-background:accumulate;stop-color:#000000;stop-opacity:1"
       d="m 110.88412,67.01875 c -12.387903,0.05997 -15.692986,0.08848 -28.080083,0.148437 -8.869591,0.05763 -28.95297,0.112246 -37.830078,0.169922 a 0.66145998,0.66145998 0 0 0 -0.65625,0.666016 0.66145998,0.66145998 0 0 0 0.666016,0.65625 c 8.869591,-0.05763 28.951017,-0.112245 37.828125,-0.169922 12.387904,-0.05997 15.691037,-0.08848 28.07813,-0.148437 16.71073,-0.07316 25.91257,-0.01904 33.73047,0.06055 7.07902,0.07206 10.60792,0.137427 12.36133,0.183594 0.8767,0.02308 1.31057,0.04072 1.51367,0.05273 0.10155,0.006 0.14782,0.01214 0.14453,0.01172 -0.002,-2.09e-4 -0.009,-4.4e-5 -0.0664,-0.01563 -0.009,-0.0023 -0.0232,-0.0058 -0.0351,-0.0098 a 0.66145998,0.66145998 0 0 0 0.83789,-0.414063 c 0,0 0.0352,-0.203125 0.0352,-0.203125 0,0 -0.0312,-0.208984 -0.0312,-0.208984 0,0 -0.0332,-0.08594 -0.0332,-0.08594 0,0 -0.0351,-0.06445 -0.0351,-0.06445 0,0 -0.5625,0.34961 -0.5625,0.34961 -5e-5,-4.2e-5 0.34384,-0.564399 0.34375,-0.564454 -1.8e-4,-1.09e-4 -0.0848,-0.04468 -0.11133,-0.05469 -0.0265,-0.01001 -0.0447,-0.0152 -0.0606,-0.01953 -0.0635,-0.01731 -0.085,-0.0179 -0.11328,-0.02148 -0.0565,-0.0072 -0.11826,-0.01266 -0.23438,-0.01953 -0.23222,-0.01374 -0.67278,-0.03142 -1.55664,-0.05469 -1.76771,-0.04655 -5.30025,-0.111497 -12.38281,-0.183594 -7.82244,-0.07963 -17.03432,-0.133724 -33.75,-0.06055 z m 47.20508,0.970703 a 0.66145998,0.66145998 0 0 0 0.22266,0.316406 c -0.0319,0.02242 -0.10352,0.07227 -0.10352,0.07227 0,0 -0.0547,-0.09375 -0.0547,-0.09375 0,0 -0.0352,-0.08789 -0.0352,-0.08789 0,0 -0.0293,-0.207031 -0.0293,-0.207031 z m 0.29687,0.421875 a 0.66145998,0.66145998 0 0 0 0.14844,0.210938 c -0.007,-0.0023 -0.011,-0.0026 -0.0195,-0.0059 -0.0256,-0.0097 -0.10955,-0.0548 -0.10937,-0.05469 9e-5,5.4e-5 -0.0918,-0.06645 -0.0918,-0.06641 0,0 0.0519,-0.06075 0.0723,-0.08398 z M 44.973959,70.604687 a 0.66145998,0.66145998 0 0 0 -0.65625,0.666016 0.66145998,0.66145998 0 0 0 0.666016,0.658203 c 16.768238,-0.123565 31.813905,0.541685 42.646484,1.109375 11.298548,0.59211 19.906811,1.144223 27.062511,1.429688 14.40415,0.574631 22.91814,0.111367 29.95507,-0.597657 5.99728,-0.60427 11.16958,-1.488888 12.32813,-1.677734 0.94237,-0.15361 1.40914,-0.220387 1.62695,-0.248047 0.1089,-0.01383 0.15963,-0.01786 0.1543,-0.01758 -0.003,1.39e-4 -0.0111,0.0039 -0.082,-0.0039 -0.0177,-0.002 -0.0747,-0.01182 -0.0742,-0.01172 1.6e-4,3.6e-5 -0.028,-0.0094 -0.0508,-0.01758 a 0.66145998,0.66145998 0 0 0 0.82617,-0.414063 c 0,0 -0.62695,-0.21289 -0.62695,-0.21289 a 0.66145998,0.66145998 0 0 0 -0.21094,0.621094 c -0.0408,-0.0146 -0.0841,-0.02935 -0.084,-0.0293 1e-4,4.6e-5 -0.12309,-0.07816 -0.12304,-0.07813 4e-5,3.9e-5 -0.14846,-0.173857 -0.14844,-0.173828 0,0 -0.0352,-0.06641 -0.0352,-0.06641 0,0 -0.0195,-0.04883 -0.0195,-0.04883 0,0 -0.0195,-0.06445 -0.0195,-0.06445 0,0 0.64063,-0.160156 0.64063,-0.160156 0,0 0.64257,-0.160156 0.64257,-0.160156 0,0 -0.0195,-0.06445 -0.0195,-0.06445 0,0 -0.0195,-0.04883 -0.0195,-0.04883 -2e-5,-2.9e-5 -0.1855,-0.240195 -0.18555,-0.240234 -4e-5,-3.9e-5 -0.12295,-0.07808 -0.12304,-0.07813 -1.9e-4,-9.3e-5 -0.14798,-0.05263 -0.14844,-0.05273 -4.6e-4,-1.05e-4 -0.0568,-0.01153 -0.0762,-0.01367 -0.0777,-0.0086 -0.0998,-0.0055 -0.13086,-0.0039 -0.0622,0.0032 -0.12735,0.01152 -0.25195,0.02734 -0.24922,0.03165 -0.72392,0.09907 -1.67383,0.253906 -1.18874,0.193768 -6.30343,1.069004 -12.24805,1.667969 -6.98843,0.704137 -15.41431,1.166429 -29.76953,0.59375 C 107.6157,72.86322 99.005137,72.308539 87.698638,71.716013 76.855992,71.147801 61.783001,70.480822 44.973959,70.604687 Z m -0.0039,3.269532 a 0.66145998,0.66145998 0 0 0 -0.652344,0.671875 0.66145998,0.66145998 0 0 0 0.671875,0.65039 c 19.179822,-0.282038 35.096471,0.846589 46.783203,1.966797 11.689107,1.120437 19.729047,2.225484 26.181637,2.822266 12.9097,1.193981 20.45068,0.295739 26.73047,-0.988281 5.59337,-1.143667 11.09075,-2.888025 12.26953,-3.25 0.99667,-0.306053 1.49177,-0.448978 1.72657,-0.513672 0.1174,-0.03235 0.17293,-0.04628 0.17578,-0.04687 0.001,-3e-4 -0.003,0.0035 -0.0625,0.0078 -0.0149,0.0011 -0.0349,0.0028 -0.0645,0.002 -0.0295,-8.11e-4 -0.13692,-0.01958 -0.13671,-0.01953 10e-6,4e-6 -0.0168,-0.0054 -0.0234,-0.0078 a 0.66145998,0.66145998 0 0 0 0.81445,-0.447266 c 0,0 -0.63476,-0.185547 -0.63476,-0.185547 a 0.66145998,0.66145998 0 0 0 -0.1836,0.630859 c -0.0346,-0.0126 -0.10746,-0.03908 -0.10742,-0.03906 0,0 0.29102,-0.591797 0.29102,-0.591797 0,0 -0.42383,0.507813 -0.42383,0.507813 0,0 -0.0293,-0.02734 -0.0293,-0.02734 0,0 -0.10352,-0.125 -0.10352,-0.125 0,0 -0.0566,-0.109375 -0.0566,-0.109375 0,0 0.61329,-0.246094 0.61329,-0.246094 -6e-5,-2.7e-5 0.1583,-0.642553 0.1582,-0.642578 -2.1e-4,-5.1e-5 -0.11009,-0.01869 -0.14063,-0.01953 -0.0305,-8.39e-4 -0.0516,7.51e-4 -0.0684,0.002 -0.0669,0.0048 -0.0864,0.0095 -0.11523,0.01563 -0.0577,0.01215 -0.12391,0.03059 -0.25391,0.06641 -0.25998,0.07163 -0.76099,0.217492 -1.76367,0.525391 -1.2134,0.372606 -6.645,2.091916 -12.14648,3.216797 -6.19598,1.266883 -13.54107,2.152834 -26.34375,0.96875 C 111.67193,78.07689 103.61374,76.969696 91.89974,75.846875 80.183373,74.723826 64.212479,73.59126 44.970053,73.874219 Z m 113.779301,0.662109 c 0,0 0.61523,-0.248047 0.61523,-0.248047 0,0 -0.0566,-0.107422 -0.0566,-0.107422 0,0 -0.10352,-0.125 -0.10352,-0.125 0,0 -0.0312,-0.02734 -0.0312,-0.02734 0,0 -0.42382,0.507812 -0.42382,0.507812 z m -98.56837,2.541016 c -4.809294,-0.08486 -9.890052,-0.07336 -15.21875,0.06641 a 0.66145998,0.66145998 0 0 0 -0.644531,0.677734 0.66145998,0.66145998 0 0 0 0.679687,0.644532 c 21.234321,-0.556944 38.524071,0.92898 50.279298,2.435546 12.016576,1.540062 19.568886,3.135638 25.427736,4.033204 11.56681,1.772013 17.44562,0.825874 24.02149,-1.132813 5.22053,-1.554988 11.03136,-4.056575 12.20117,-4.546875 1.04086,-0.436252 1.55679,-0.645888 1.80469,-0.742187 0.12395,-0.04815 0.18366,-0.06779 0.1914,-0.07031 0.004,-0.0013 0.002,0.0015 -0.0508,0.01172 -0.0132,0.0026 -0.0299,0.0051 -0.0566,0.0078 -0.0267,0.0027 -0.12913,-2.1e-5 -0.1289,0 6e-5,6e-6 -0.0351,-0.0066 -0.0703,-0.01367 a 0.66145998,0.66145998 0 0 0 0.7793,-0.5 c 0,0 -0.64648,-0.144531 -0.64648,-0.144531 a 0.66145998,0.66145998 0 0 0 -0.14258,0.642578 c -0.0253,-0.0051 -0.0528,-0.0098 -0.0527,-0.0098 0,0 0.19532,-0.632813 0.19532,-0.632813 0,0 -0.3379,0.56836 -0.3379,0.56836 0,0 -0.0352,-0.02148 -0.0352,-0.02148 0,0 -0.12695,-0.113281 -0.12695,-0.113281 0,0 -0.0762,-0.109375 -0.0762,-0.109375 0,0 0.57618,-0.324219 0.57618,-0.324219 -7e-5,-1.9e-5 0.0626,-0.658192 0.0625,-0.658203 -2.3e-4,-2.1e-5 -0.10306,-0.0028 -0.13086,0 -0.0278,0.0028 -0.0455,0.0068 -0.0605,0.0098 -0.0604,0.01174 -0.0794,0.02017 -0.10742,0.0293 -0.056,0.01825 -0.12479,0.04327 -0.25977,0.0957 -0.26996,0.104872 -0.79177,0.315447 -1.83789,0.753906 -1.20736,0.506038 -6.96101,2.979307 -12.06641,4.5 -6.48446,1.93146 -12.01011,2.845302 -23.44335,1.09375 -5.79467,-0.887732 -13.39941,-2.49324 -25.460946,-4.039063 -8.8565,-1.135061 -20.835792,-2.257128 -35.263674,-2.511718 z m 98.56837,0.726562 c 0,0 0.57812,-0.324219 0.57812,-0.324219 0,0 -0.0762,-0.107421 -0.0762,-0.107421 0,0 -0.12891,-0.113282 -0.12891,-0.113282 0,0 -0.0352,-0.02344 -0.0352,-0.02344 0,0 -0.33789,0.568359 -0.33789,0.568359 z m -97.458995,2.355469 c -5.136892,-0.05316 -10.590261,0.01936 -16.33789,0.253906 a 0.66145998,0.66145998 0 0 0 -0.634766,0.6875 0.66145998,0.66145998 0 0 0 0.6875,0.632813 c 22.898129,-0.934435 41.100369,0.728629 53.169928,2.554687 11.294683,1.708824 20.395253,4.097271 24.798823,5.070313 10.51424,2.323292 15.38446,1.373789 21.79493,-1.048828 4.8909,-1.848351 10.98409,-5.010254 12.1289,-5.589844 1.07586,-0.544678 1.61107,-0.807082 1.86914,-0.929688 0.12904,-0.0613 0.19026,-0.08925 0.20118,-0.09375 0.005,-0.0022 0.005,8.8e-5 -0.043,0.01367 -0.0121,0.0034 -0.0279,0.0089 -0.0527,0.01367 -0.0248,0.0048 -0.12134,0.01172 -0.12109,0.01172 9e-5,0 -0.0522,-0.0062 -0.0898,-0.0098 a 0.66145998,0.66145998 0 0 0 0.74219,-0.55664 c 0,0 -0.65429,-0.0957 -0.65429,-0.0957 a 0.66145998,0.66145998 0 0 0 -0.0957,0.652344 c -0.0106,-9.97e-4 -0.0293,-0.0039 -0.0293,-0.0039 0,0 -0.0352,-0.0059 -0.0352,-0.0059 0,0 -0.0371,-0.01172 -0.0371,-0.01172 0,0 -0.0723,-0.02734 -0.0723,-0.02734 0,0 -0.0371,-0.01758 -0.0371,-0.01758 0,0 -0.13867,-0.09766 -0.13867,-0.09766 0,0 -0.0898,-0.101563 -0.0898,-0.101563 0,0 0.53516,-0.386718 0.53516,-0.386719 0,0 0.53711,-0.386718 0.5371,-0.386718 0,0 -0.0898,-0.101563 -0.0898,-0.101563 0,0 -0.14062,-0.09766 -0.14062,-0.09766 0,0 -0.0371,-0.01758 -0.0371,-0.01758 0,0 -0.0723,-0.02734 -0.0723,-0.02734 0,0 -0.0234,-0.0078 -0.0234,-0.0078 -6e-5,-1.3e-5 -0.17566,-0.02344 -0.17578,-0.02344 -2.4e-4,10e-7 -0.0971,0.0067 -0.12304,0.01172 -0.026,0.005 -0.0425,0.0097 -0.0566,0.01367 -0.0564,0.01587 -0.0738,0.02568 -0.10156,0.03711 -0.0555,0.02285 -0.12836,0.05495 -0.26758,0.121094 -0.27843,0.132282 -0.81772,0.396221 -1.89843,0.943359 -1.18445,0.599652 -7.23471,3.73306 -11.99805,5.533203 -6.31744,2.387459 -10.68172,3.285581 -21.04297,0.996094 -4.33224,-0.957279 -13.51557,-3.367498 -24.886723,-5.087891 -9.109979,-1.37829 -21.671355,-2.660836 -37.082032,-2.820312 z m 0.888672,3.007812 c -5.400048,0.0055 -11.153059,0.163702 -17.238281,0.515625 a 0.66145998,0.66145998 0 0 0 -0.621094,0.697266 0.66145998,0.66145998 0 0 0 0.697266,0.623047 c 24.239651,-1.401839 43.165504,0.300818 55.488292,2.355469 11.85516,1.976682 19.94037,4.666195 24.28906,5.943359 9.6872,2.845029 13.72576,2.019951 20.01953,-0.761719 4.61839,-2.041198 10.93988,-5.753005 12.05859,-6.394531 1.10258,-0.632273 1.65212,-0.938072 1.91797,-1.082031 0.13293,-0.07198 0.1977,-0.10306 0.21094,-0.109375 0.007,-0.0032 0.006,-0.0019 -0.0391,0.01367 -0.0113,0.0039 -0.0255,0.0096 -0.0488,0.01563 -0.0234,0.006 -0.11549,0.0176 -0.11524,0.01758 1.1e-4,-8e-6 -0.0656,-0.0014 -0.0977,-0.002 a 0.66145998,0.66145998 0 0 0 0.70898,-0.603516 c 0,0 -0.66015,-0.05273 -0.66015,-0.05273 a 0.66145998,0.66145998 0 0 0 -0.0527,0.65625 c -0.006,-1.15e-4 -0.0215,-2e-6 -0.0215,0 7e-5,8e-6 -0.22464,-0.06642 -0.22461,-0.06641 0,0 -0.0781,-0.04687 -0.0781,-0.04687 0,0 -0.0547,-0.04297 -0.0547,-0.04297 0,0 -0.0664,-0.06641 -0.0664,-0.06641 0,0 0.49805,-0.433593 0.49805,-0.433593 0,0 0.49804,-0.435547 0.49804,-0.435547 0,0 -0.0644,-0.06641 -0.0644,-0.06641 0,0 -0.0547,-0.04102 -0.0547,-0.04102 -3e-5,-1.6e-5 -0.30461,-0.115226 -0.30469,-0.115234 -7e-5,-8e-6 -0.12291,-0.002 -0.12304,-0.002 -2.6e-4,2e-5 -0.0926,0.01323 -0.11719,0.01953 -0.0245,0.0063 -0.0413,0.01099 -0.0547,0.01563 -0.0535,0.01853 -0.07,0.02784 -0.0977,0.04102 -0.0553,0.02636 -0.12895,0.0654 -0.27149,0.142578 -0.28507,0.154364 -0.83815,0.462753 -1.94531,1.097657 -1.15968,0.66502 -7.45214,4.348537 -11.93555,6.330078 -6.20258,2.741365 -9.57668,3.50335 -19.11133,0.703125 -4.29157,-1.26039 -12.49215,-3.98582 -24.44335,-5.978516 C 91.407051,84.500442 78.379183,83.15064 62.179037,83.167187 Z m 0.683594,2.94336 c -5.602873,0.08781 -11.585596,0.353312 -17.933594,0.841797 a 0.66145998,0.66145998 0 0 0 -0.609375,0.708984 0.66145998,0.66145998 0 0 0 0.710938,0.609375 c 25.284196,-1.945642 44.749448,-0.324609 57.27344,1.875 12.18184,2.139517 19.6922,5.113518 23.89258,6.660156 4.53514,1.669902 7.61277,2.392017 10.38477,2.283203 2.772,-0.108813 5.16501,-1.055428 8.27734,-2.574218 4.42023,-2.157031 10.88362,-6.28341 11.99414,-6.976563 1.12183,-0.700211 1.68156,-1.04045 1.95313,-1.201172 0.13578,-0.08036 0.20166,-0.117026 0.21679,-0.125 0.008,-0.004 0.009,-0.0011 -0.0332,0.01563 -0.0105,0.0042 -0.0249,0.0088 -0.0469,0.01563 -0.022,0.0068 -0.10769,0.02347 -0.10742,0.02344 1.3e-4,-1.6e-5 -0.091,0.0052 -0.10742,0.0059 a 0.66145998,0.66145998 0 0 0 0.68359,-0.636719 c 0,0 -0.6621,-0.02539 -0.6621,-0.02539 a 0.66145998,0.66145998 0 0 0 -0.0234,0.662109 c -9.7e-4,4e-5 -0.008,0 -0.008,0 7e-5,4e-6 -0.22269,-0.05079 -0.22266,-0.05078 0,0 -0.0801,-0.04102 -0.0801,-0.04102 0,0 -0.0586,-0.03711 -0.0586,-0.03711 0,0 -0.0703,-0.06055 -0.0703,-0.06055 0,0 0.4629,-0.472656 0.4629,-0.472656 0,0 0.46484,-0.470703 0.46484,-0.470703 0,0 -0.0723,-0.06055 -0.0723,-0.06055 0,0 -0.0566,-0.03906 -0.0566,-0.03906 -3e-5,-1.3e-5 -0.30266,-0.08984 -0.30273,-0.08984 -8e-5,-4e-6 -0.11901,0.0058 -0.11914,0.0059 -2.7e-4,3.5e-5 -0.0862,0.01628 -0.10938,0.02344 -0.0232,0.0072 -0.04,0.01254 -0.0527,0.01758 -0.0509,0.02017 -0.0663,0.03047 -0.0937,0.04492 -0.0549,0.02891 -0.13051,0.0705 -0.27539,0.15625 -0.28976,0.171492 -0.85234,0.513872 -1.97852,1.216797 -1.15173,0.718878 -7.59691,4.824441 -11.875,6.91211 -3.06674,1.496541 -5.24464,2.341183 -7.74804,2.439453 -2.50341,0.09827 -5.40876,-0.555919 -9.87696,-2.201172 C 122.4896,94.032489 114.83122,91.002769 102.53442,88.843062 93.050758,87.177431 79.671159,85.847208 62.862541,86.11064 Z m 16.521484,2.871094 c -9.858543,-0.324247 -21.385092,-0.04139 -34.46875,1.240234 a 0.66145998,0.66145998 0 0 0 -0.59375,0.722656 0.66145998,0.66145998 0 0 0 0.722656,0.59375 c 26.054781,-2.552227 45.884815,-1.119779 58.564459,1.148438 12.39182,2.216729 19.53692,5.438735 23.60352,7.230468 4.52942,1.995653 6.83248,2.943503 9.76757,2.841793 2.69111,-0.0932 5.33205,-1.16871 7.92188,-2.50195 4.30771,-2.217594 10.80739,-6.609802 11.94141,-7.359374 1.13431,-0.749767 1.69918,-1.11583 1.9746,-1.289062 0.13772,-0.08662 0.20586,-0.125276 0.22266,-0.134766 0.008,-0.0047 0.01,-0.0035 -0.0293,0.01367 -0.01,0.0043 -0.0243,0.01035 -0.0449,0.01758 -0.0206,0.0072 -0.10184,0.02544 -0.10156,0.02539 1.4e-4,-2.5e-5 -0.11141,0.01172 -0.11133,0.01172 0,0 -0.007,-0.0019 -0.008,-0.002 a 0.66145998,0.66145998 0 0 0 0.66601,-0.652343 c 0,0 -0.6621,-0.0078 -0.6621,-0.0078 a 0.66145998,0.66145998 0 0 0 -0.006,0.660156 c -0.0179,-0.0029 -0.20707,-0.03517 -0.20704,-0.03516 0,0 -0.084,-0.03516 -0.084,-0.03516 0,0 -0.0605,-0.0332 -0.0605,-0.0332 0,0 -0.0762,-0.05664 -0.0762,-0.05664 0,0 0.4336,-0.5 0.4336,-0.5 0,0 0.43359,-0.5 0.43359,-0.5 0,0 -0.0762,-0.05664 -0.0762,-0.05664 0,0 -0.0586,-0.0332 -0.0586,-0.0332 -3e-5,-1.1e-5 -0.30265,-0.07227 -0.30273,-0.07227 -8e-5,0 -0.11119,0.01169 -0.11133,0.01172 -2.7e-4,5e-5 -0.0836,0.01968 -0.10547,0.02734 -0.0219,0.0077 -0.0348,0.01233 -0.0469,0.01758 -0.0481,0.02099 -0.0647,0.03158 -0.0918,0.04687 -0.0541,0.03059 -0.12911,0.07596 -0.27539,0.167969 -0.29256,0.18401 -0.86354,0.552212 -2.00195,1.304688 -1.17407,0.776044 -7.66099,5.147909 -11.81641,7.287109 -2.5192,1.296873 -4.99889,2.275493 -7.36328,2.357423 -2.62957,0.0911 -4.66787,-0.74108 -9.1875,-2.732423 C 123.6903,96.919679 116.3672,93.6244 103.84274,91.383941 97.432787,90.237289 89.242288,89.305844 79.383745,88.981598 Z m 0.560547,2.550781 c -9.991498,-0.17047 -21.700316,0.348011 -35.044922,1.958984 a 0.66145998,0.66145998 0 0 0 -0.578125,0.736328 0.66145998,0.66145998 0 0 0 0.736328,0.578125 c 26.573472,-3.207973 46.603406,-2.06066 59.398447,0.207032 12.52455,2.219754 19.43752,5.648339 23.41601,7.664059 4.407,2.23284 6.48916,3.38055 9.35156,3.42774 2.59989,0.0429 5.16199,-0.98513 7.71875,-2.32032 4.27649,-2.23325 10.70889,-6.744156 11.89649,-7.558589 1.14068,-0.782259 1.71066,-1.163884 1.98828,-1.345703 0.13881,-0.09091 0.20626,-0.131693 0.22461,-0.142578 0.009,-0.0054 0.0106,-0.0052 -0.0254,0.01172 -0.009,0.0042 -0.02,0.0102 -0.0391,0.01758 -0.0191,0.0074 -0.096,0.02741 -0.0957,0.02734 1.4e-4,-3.1e-5 -0.10554,0.01563 -0.10547,0.01563 2e-5,-10e-7 -0.0244,-0.003 -0.0332,-0.0039 a 0.66145998,0.66145998 0 0 0 0.6582,-0.652343 c 0,0 -0.6621,-0.0039 -0.6621,-0.0039 a 0.66145998,0.66145998 0 0 0 -0.004,0.65625 c -0.0535,-0.0058 -0.1719,-0.01954 -0.17188,-0.01953 0,0 -0.0859,-0.0293 -0.0859,-0.0293 0,0 -0.0625,-0.03125 -0.0625,-0.03125 0,0 -0.082,-0.05469 -0.082,-0.05469 0,0 0.40625,-0.521485 0.40625,-0.521485 0,0 0.4082,-0.521484 0.4082,-0.521484 0,0 -0.082,-0.05469 -0.082,-0.05469 0,0 -0.0645,-0.03125 -0.0645,-0.03125 -3e-5,-9e-6 -0.29875,-0.05274 -0.29882,-0.05273 -8e-5,4e-6 -0.10533,0.01364 -0.10547,0.01367 -2.8e-4,6.2e-5 -0.0773,0.02143 -0.0977,0.0293 -0.0203,0.0079 -0.0337,0.01426 -0.0449,0.01953 -0.0449,0.0211 -0.0614,0.03115 -0.0879,0.04687 -0.053,0.03145 -0.12666,0.07965 -0.27344,0.175781 -0.29355,0.192255 -0.86722,0.576453 -2.01172,1.361328 -1.2254,0.840359 -7.65083,5.330803 -11.75976,7.476563 -2.47872,1.29443 -4.85465,2.20475 -7.08594,2.16797 -2.52088,-0.0416 -4.35668,-1.04444 -8.77539,-3.2832 -3.99131,-2.022227 -11.10964,-5.54095 -23.7832,-7.787114 -6.476443,-1.147833 -14.7507,-2.007264 -24.742198,-2.177734 z m -0.03906,2.515625 c -10.151561,0.03101 -21.939776,0.815882 -35.021485,2.714844 a 0.66145998,0.66145998 0 0 0 -0.558594,0.75 0.66145998,0.66145998 0 0 0 0.748047,0.560546 c 26.042231,-3.780331 46.93351,-3.115348 59.8086,-0.910156 12.59863,2.157843 19.37823,5.750489 23.32422,7.970699 4.36776,2.45753 6.29302,3.78866 9.14257,4.01758 2.56327,0.20592 5.08939,-0.73419 7.63477,-2.03515 4.30864,-2.20218 10.60311,-6.71052 11.85938,-7.589848 1.14154,-0.799025 1.71191,-1.190156 1.99023,-1.376953 0.13916,-0.0934 0.20671,-0.13626 0.22656,-0.148437 0.01,-0.0061 0.0129,-0.0063 -0.0195,0.0098 -0.0162,0.0081 -0.1236,0.04702 -0.12305,0.04687 1.4e-4,-3.6e-5 -0.0977,0.01759 -0.0976,0.01758 3e-5,-3e-6 -0.0418,-0.002 -0.0781,-0.0039 a 0.66145998,0.66145998 0 0 0 0.66992,-0.636718 c 0,0 -0.6621,-0.01758 -0.6621,-0.01758 a 0.66145998,0.66145998 0 0 0 -0.0176,0.652344 c -0.0587,-0.0031 -0.12112,-0.0059 -0.1211,-0.0059 0,0 -0.0879,-0.02344 -0.0879,-0.02344 0,0 -0.0644,-0.0293 -0.0644,-0.0293 0,0 -0.0898,-0.05273 -0.0898,-0.05273 0,0 0.38086,-0.541015 0.38086,-0.541016 0,0 0.38086,-0.539062 0.38085,-0.539062 0,0 -0.0879,-0.05273 -0.0879,-0.05273 0,0 -0.0664,-0.0293 -0.0664,-0.0293 -4e-5,-8e-6 -0.29485,-0.03517 -0.29492,-0.03516 -8e-5,9e-6 -0.0995,0.01754 -0.0996,0.01758 -5.5e-4,1.45e-4 -0.11022,0.03856 -0.13086,0.04883 -0.0413,0.02053 -0.0563,0.0311 -0.082,0.04687 -0.0514,0.03155 -0.12701,0.07945 -0.27344,0.177734 -0.29287,0.196562 -0.86474,0.589158 -2.00977,1.390625 -1.29148,0.903978 -7.58377,5.390661 -11.70312,7.496091 -2.45631,1.25544 -4.7596,2.06871 -6.92774,1.89453 -2.48665,-0.19976 -4.20107,-1.37671 -8.59961,-3.85156 -3.98053,-2.23965 -10.98729,-5.9371 -23.75,-8.123045 -6.532793,-1.118911 -15.047657,-1.841554 -25.199218,-1.810547 z m 0.01563,2.425781 c -10.156404,0.246278 -21.951949,1.317493 -35.052735,3.560542 a 0.66145998,0.66145998 0 0 0 -0.541015,0.76368 0.66145998,0.66145998 0 0 0 0.763671,0.54101 c 26.079034,-4.465126 46.959448,-4.249318 59.832027,-2.169919 12.6251,2.039419 19.34961,5.754219 23.32032,8.160159 4.40733,2.6705 6.23242,4.16984 9.12304,4.60742 2.57271,0.38945 5.10064,-0.42807 7.6543,-1.66211 4.38398,-2.11853 10.5107,-6.54032 11.83398,-7.47266 1.13747,-0.80141 1.70472,-1.19433 1.98243,-1.38281 0.13091,-0.0888 0.18961,-0.12854 0.21484,-0.14453 -0.0141,0.007 -0.10991,0.0451 -0.10938,0.0449 1.4e-4,-4e-5 -0.0899,0.0215 -0.0898,0.0215 0,0 -0.0254,0.002 -0.0254,0.002 0,0 -0.0312,0.004 -0.0312,0.004 0,0 -0.0625,0.002 -0.0625,0.002 0,0 -0.0297,-0.002 -0.0332,-0.002 -2.1e-4,-1e-5 -0.002,0 -0.002,0 0,0 -0.16211,-0.0332 -0.16211,-0.0332 0,0 -0.14062,-0.0684 -0.14062,-0.0684 0,0 0.35352,-0.55859 0.35352,-0.55859 0,0 0.35546,-0.5586 0.35546,-0.5586 0,0 -0.14257,-0.0684 -0.14257,-0.0684 0,0 -0.16211,-0.0332 -0.16211,-0.0332 0,0 -0.0352,-0.002 -0.0352,-0.002 0,0 -0.0625,0.002 -0.0625,0.002 0,0 -0.0195,0.002 -0.0195,0.002 -8e-5,1e-5 -0.12682,0.0254 -0.12695,0.0254 -5.4e-4,1.7e-4 -0.0967,0.0392 -0.11524,0.0488 -0.0371,0.0193 -0.0534,0.0275 -0.0781,0.043 -0.0494,0.031 -0.12225,0.081 -0.26758,0.17969 -0.29066,0.19727 -0.86138,0.59092 -2.00195,1.39453 -1.35615,0.95549 -7.4824,5.35006 -11.64844,7.36328 -2.44987,1.18389 -4.70926,1.87366 -6.88086,1.54493 -2.52548,-0.3823 -4.18145,-1.73133 -8.63477,-4.42969 -4.02267,-2.43744 -10.99187,-6.267774 -23.79492,-8.335941 -6.540023,-1.056455 -15.056485,-1.63495 -25.212888,-1.388672 z m 78.828128,4.212892 a 0.66145998,0.66145998 0 0 0 -0.0488,0.66015 0.66145998,0.66145998 0 0 0 0.70898,-0.61132 c 0,0 -0.66015,-0.0488 -0.66015,-0.0488 z M 93.68685,98.735547 C 81.290405,98.203498 65.063412,99.289135 44.850912,103.30781 a 0.66145998,0.66145998 0 0 0 -0.519531,0.77735 0.66145998,0.66145998 0 0 0 0.777344,0.51953 c 26.832347,-5.334847 46.562809,-5.461068 59.507815,-3.53907 12.61173,1.87252 19.34617,5.67127 23.39649,8.24415 4.52129,2.87204 6.29471,4.51329 9.27734,5.17968 2.62239,0.58591 5.18416,-0.0789 7.76367,-1.21679 4.48783,-1.97971 10.44013,-6.25536 11.81836,-7.22071 1.12901,-0.79077 1.6928,-1.17806 1.96875,-1.36523 0.13798,-0.0936 0.20561,-0.13783 0.22852,-0.15235 0.0114,-0.007 0.0139,-0.009 -0.01,0.004 -0.0118,0.006 -0.0923,0.0412 -0.0918,0.041 1.3e-4,-5e-5 -0.0802,0.0234 -0.0801,0.0234 0,0 -0.0234,0.004 -0.0234,0.004 0,0 -0.0273,0.004 -0.0273,0.004 0,0 -0.0586,0.006 -0.0586,0.006 0,0 -0.0332,0 -0.0332,0 0,0 -0.0455,-0.006 -0.0898,-0.0117 a 0.66145998,0.66145998 0 0 0 0.74804,-0.54883 c 0,0 -0.65429,-0.0996 -0.65429,-0.0996 a 0.66145998,0.66145998 0 0 0 -0.0996,0.64843 c -0.0332,-0.004 -0.0684,-0.01 -0.0684,-0.01 0,0 0.16797,-0.63867 0.16797,-0.63867 0,0 0.16796,-0.64062 0.16796,-0.64062 0,0 -0.16406,-0.0215 -0.16406,-0.0215 0,0 -0.0332,0 -0.0332,0 0,0 -0.0586,0.006 -0.0586,0.006 0,0 -0.0176,0.002 -0.0176,0.002 -7e-5,1e-5 -0.11315,0.0292 -0.11328,0.0293 -5.2e-4,1.8e-4 -0.0835,0.0362 -0.0996,0.0449 -0.0322,0.0175 -0.0468,0.0262 -0.0703,0.041 -0.0469,0.0297 -0.11818,0.0784 -0.26172,0.17578 -0.28707,0.19471 -0.85269,0.5843 -1.98437,1.37695 -1.40917,0.98701 -7.35867,5.22553 -11.59375,7.09375 -2.45777,1.08419 -4.70734,1.63435 -6.94336,1.13477 -2.63416,-0.58854 -4.27701,-2.0975 -8.85547,-5.00586 -4.11538,-2.61421 -11.10768,-6.53471 -23.91015,-8.435549 -3.28654,-0.487966 -6.992863,-0.844135 -11.12501,-1.021484 z m -0.582032,2.033203 c -12.289105,-0.26294 -28.269288,1.25149 -48.273437,5.81055 a 0.66145998,0.66145998 0 0 0 -0.498047,0.79297 0.66145998,0.66145998 0 0 0 0.792969,0.49804 c 26.556203,-6.05231 45.931866,-6.69752 58.875007,-4.98242 12.56468,1.66495 19.36046,5.50621 23.54101,8.22656 4.70589,3.0622 6.46589,4.82281 9.5918,5.73243 2.71526,0.79012 5.37144,0.28656 7.94922,-0.7129 4.6115,-1.78796 10.39504,-5.87417 11.8125,-6.8496 1.1167,-0.76847 1.67404,-1.14692 1.94727,-1.33008 0.13579,-0.091 0.19969,-0.13458 0.2246,-0.15039 -0.009,0.005 -0.0747,0.0353 -0.0742,0.0352 1.2e-4,-5e-5 -0.0665,0.0235 -0.0664,0.0234 0,0 -0.0195,0.004 -0.0195,0.004 0,0 -0.0234,0.006 -0.0234,0.006 0,0 -0.0527,0.008 -0.0527,0.008 0,0 -0.0293,0.004 -0.0293,0.004 0,0 -0.16211,-0.008 -0.16211,-0.008 0,0 0.004,-0.0218 0.004,-0.0234 a 0.66145998,0.66145998 0 0 0 0.74414,-0.45117 c 0,0 -0.63867,-0.17773 -0.63867,-0.17773 0,0 0.10937,-0.65235 0.10937,-0.65235 0,0 -0.16016,-0.006 -0.16016,-0.006 0,0 -0.0312,0.002 -0.0312,0.002 0,0 -0.0508,0.01 -0.0508,0.01 0,0 -0.0156,0.002 -0.0156,0.002 -7e-5,2e-5 -0.0956,0.0312 -0.0957,0.0312 -4.9e-4,2e-4 -0.0686,0.0316 -0.082,0.0391 -0.0268,0.015 -0.0385,0.0232 -0.0605,0.0371 -0.044,0.0279 -0.11668,0.0734 -0.25782,0.16797 -0.28226,0.18923 -0.8401,0.56989 -1.95898,1.33985 -1.44689,0.99569 -7.21915,5.03212 -11.53906,6.70703 -2.43377,0.94362 -4.75322,1.3597 -7.10352,0.67578 -2.80826,-0.81718 -4.46947,-2.46785 -9.24023,-5.57226 -4.25504,-2.76882 -11.32065,-6.73595 -24.08789,-8.42774 -3.28933,-0.43629 -6.974293,-0.72141 -11.070662,-0.80906 z m -0.828125,2.01758 c -12.135926,0.0268 -27.778054,1.98056 -47.46289,7.0664 a 0.66145998,0.66145998 0 0 0 -0.47461,0.80665 0.66145998,0.66145998 0 0 0 0.804688,0.4746 c 26.133164,-6.75186 45.047308,-7.93653 57.968759,-6.46289 12.48924,1.42436 19.38999,5.27188 23.74609,8.11914 4.95923,3.24149 6.72516,5.09001 10.04883,6.25391 2.83154,0.99156 5.52642,0.7025 8.20117,-0.16992 4.74964,-1.54918 10.37305,-5.41563 11.81445,-6.37891 1.06591,-0.71233 1.61378,-1.07496 1.89258,-1.25781 0.1394,-0.0914 0.21218,-0.13668 0.2461,-0.1582 0.017,-0.0108 0.0251,-0.0166 0.0234,-0.0156 -0.002,9.9e-4 -0.0703,0.0352 -0.0703,0.0352 a 0.66145998,0.66145998 0 0 0 0.3418,-0.86914 0.66145998,0.66145998 0 0 0 -0.8711,-0.3418 c 0,0 -0.0707,0.035 -0.084,0.043 -0.0133,0.008 -0.0268,0.0173 -0.0488,0.0312 -0.0441,0.028 -0.11928,0.0765 -0.26172,0.16992 -0.28488,0.18684 -0.83476,0.55022 -1.90234,1.26367 -1.46967,0.98217 -7.07146,4.77945 -11.49024,6.22071 -2.51259,0.81952 -4.83903,1.06022 -7.35351,0.17968 -3.04442,-1.06611 -4.73455,-2.82611 -9.76367,-6.11328 -4.43724,-2.9003 -11.61565,-6.87747 -24.31836,-8.32617 -3.286193,-0.37478 -6.941023,-0.57925 -10.986337,-0.57031 z m -1.041015,2.02929 c -11.943144,0.32962 -27.171684,2.72152 -46.441407,8.31055 a 0.66145998,0.66145998 0 0 0 -0.451171,0.82031 0.66145998,0.66145998 0 0 0 0.820312,0.45118 c 25.583383,-7.42026 43.942994,-9.15358 56.826178,-7.94922 12.39018,1.15827 19.43081,4.97549 24.00195,7.92773 5.08971,3.28716 7.98085,5.50499 10.59766,6.72266 2.61681,1.21766 4.97239,1.33987 8.53906,0.41406 4.89811,-1.27142 10.37197,-4.88904 11.82422,-5.82031 1.04864,-0.67245 1.58708,-1.01561 1.86133,-1.18945 0.27425,-0.17385 0.22851,-0.14844 0.22851,-0.14844 a 0.66145998,0.66145998 0 0 0 0.30079,-0.88477 0.66145998,0.66145998 0 0 0 -0.88672,-0.30078 c 0,0 -0.0716,0.0406 -0.34961,0.2168 -0.27798,0.1762 -0.81753,0.52025 -1.86719,1.19336 -1.47959,0.9488 -6.91123,4.47592 -11.44336,5.65234 -3.41576,0.88664 -5.2602,0.78018 -7.65039,-0.33203 -2.39019,-1.11221 -5.31315,-3.32524 -10.4375,-6.63477 -4.65701,-3.00769 -11.98203,-6.95364 -24.5957,-8.13281 -3.278963,-0.30653 -6.895916,-0.42628 -10.876962,-0.31641 z m -1.21875,2.07032 c -11.717016,0.63782 -26.466501,3.45708 -45.240235,9.51562 a 0.66145998,0.66145998 0 0 0 -0.427734,0.83203 0.66145998,0.66145998 0 0 0 0.833984,0.42774 c 24.926685,-8.04418 42.651132,-10.31829 55.482427,-9.4043 12.27186,0.87414 19.48315,4.62636 24.30274,7.66016 5.03134,3.1671 8.63991,5.446 11.71679,6.82812 3.07688,1.38213 5.66861,1.85471 8.45899,1.32227 5.05313,-0.9642 10.38922,-4.31095 11.84179,-5.19336 2.0589,-1.25074 2.08789,-1.26563 2.08789,-1.26563 a 0.66145998,0.66145998 0 0 0 0.25391,-0.90039 0.66145998,0.66145998 0 0 0 -0.90039,-0.2539 c 0,0 -0.0694,0.0399 -2.12891,1.29101 -1.47918,0.89858 -6.74142,4.13213 -11.40234,5.02149 -2.5093,0.4788 -4.73804,0.0885 -7.66992,-1.22852 -2.93188,-1.31699 -6.5212,-3.57301 -11.55274,-6.74023 -4.9089,-3.09003 -12.40759,-6.97062 -24.91211,-7.86133 -3.268043,-0.23279 -6.83847,-0.26339 -10.744142,-0.0508 z m 9.226569,1.91992 c -13.016402,-0.62121 -30.204265,2.22543 -54.486335,10.87109 a 0.66145998,0.66145998 0 0 0 -0.400391,0.84571 0.66145998,0.66145998 0 0 0 0.84375,0.40039 c 24.182544,-8.61023 41.212061,-11.4043 53.980476,-10.79492 12.138443,0.57931 19.541593,4.23576 24.636713,7.32617 5.29493,3.21159 9.16822,5.63733 12.45118,7.19726 3.28295,1.55994 6.01605,2.25548 8.88476,1.9043 5.21136,-0.63797 10.41842,-3.68802 11.86328,-4.50781 2.01772,-1.14482 2.08789,-1.18946 2.08789,-1.18946 a 0.66145998,0.66145998 0 0 0 0.20313,-0.91406 0.66145998,0.66145998 0 0 0 -0.91406,-0.20117 c 0,0 -0.0125,0.008 -2.0293,1.15234 -1.47084,0.83453 -6.56564,3.75939 -11.37109,4.34766 -2.56346,0.31381 -4.99015,-0.2827 -8.15625,-1.78711 -3.16611,-1.50441 -7.03164,-3.91671 -12.33399,-7.13281 -5.18712,-3.14621 -12.88043,-6.92677 -25.259763,-7.51758 z m -1.64063,1.96875 c -12.950743,-0.30351 -29.399789,3.03657 -52.863283,12.17773 a 0.66145998,0.66145998 0 0 0 -0.376953,0.85743 0.66145998,0.66145998 0 0 0 0.857422,0.375 C 68.59014,115.08 84.874758,111.79932 97.571617,112.09688 c 11.993893,0.28108 19.604753,3.815 24.996103,6.93554 6.2989,3.64585 9.84946,6.21495 12.90039,7.86133 3.05092,1.64638 5.64645,2.33425 9.69335,2.10547 5.37018,-0.30359 10.45349,-3.04272 11.88477,-3.78906 0.98737,-0.51487 1.49025,-0.7777 1.74805,-0.91407 0.1289,-0.0682 0.19641,-0.1044 0.23437,-0.125 0.019,-0.0103 0.0304,-0.0174 0.041,-0.0234 0.0106,-0.006 0.0723,-0.0469 0.0723,-0.0469 a 0.66145998,0.66145998 0 0 0 0.14063,-0.92383 0.66145998,0.66145998 0 0 0 -0.92578,-0.14062 c 0,0 0.0616,-0.0405 0.0625,-0.041 9.4e-4,-5.3e-4 -0.006,0.003 -0.0215,0.0117 -0.0304,0.0165 -0.094,0.0521 -0.2207,0.11914 -0.25338,0.13403 -0.75601,0.39787 -1.74219,0.91211 -1.4567,0.7596 -6.3849,3.35996 -11.34961,3.64063 -3.87504,0.21906 -6.06869,-0.37371 -8.98828,-1.94922 -2.91959,-1.57551 -6.52196,-4.16914 -12.86719,-7.8418 -5.48554,-3.17507 -13.38499,-6.82639 -25.626953,-7.11328 z m -1.73047,2.10156 c -12.877139,0.0145 -28.555504,3.80101 -51.150391,13.35156 a 0.66145998,0.66145998 0 0 0 -0.351563,0.86719 0.66145998,0.66145998 0 0 0 0.867188,0.35156 c 22.508132,-9.51387 38.018022,-13.23192 50.636726,-13.24609 11.841993,-0.0133 19.671323,3.36946 25.373043,6.49219 6.79155,3.71961 10.57688,6.35388 13.78321,8.10547 3.20632,1.75159 5.87683,2.59743 10.13476,2.61914 5.52785,0.0282 10.49447,-2.38399 11.9082,-3.04883 0.96549,-0.45404 1.4572,-0.6873 1.70899,-0.80859 0.12589,-0.0607 0.19141,-0.0936 0.23047,-0.11329 0.0195,-0.01 0.0306,-0.0157 0.0449,-0.0234 0.007,-0.004 0.0159,-0.008 0.0293,-0.0156 0.007,-0.004 0.0272,-0.0175 0.0273,-0.0176 1.1e-4,-7e-5 0.0703,-0.0527 0.0703,-0.0527 a 0.66145998,0.66145998 0 0 0 0.0645,-0.93359 0.66145998,0.66145998 0 0 0 -0.9336,-0.0645 c 0,0 0.0685,-0.0528 0.0684,-0.0527 -1.1e-4,7e-5 0.0213,-0.014 0.0273,-0.0176 -0.0281,0.0141 -0.0854,0.0429 -0.20312,0.0996 -0.24461,0.11784 -0.73371,0.3496 -1.69727,0.80273 -1.43863,0.67656 -6.20359,2.95001 -11.33984,2.92383 -4.09283,-0.0209 -6.40679,-0.76403 -9.50586,-2.45703 -3.09906,-1.69299 -6.94064,-4.35899 -13.78125,-8.10547 -5.79778,-3.17534 -13.91568,-6.66983 -26.011723,-6.65625 z m -1.779297,2.27149 c -12.797254,0.32478 -27.691705,4.49793 -49.386719,14.35742 a 0.66145998,0.66145998 0 0 0 -0.330078,0.875 0.66145998,0.66145998 0 0 0 0.876953,0.32812 c 21.615263,-9.82325 36.337258,-13.92013 48.873047,-14.23828 11.686467,-0.29659 19.740117,2.91229 25.759767,6.00781 7.33185,3.77031 11.33941,6.4357 14.68946,8.26563 3.35004,1.82993 6.0816,2.81057 10.58984,3.08594 5.68331,0.34714 10.53777,-1.72875 11.93164,-2.30664 0.94368,-0.39125 1.42233,-0.59385 1.66797,-0.69922 0.12282,-0.0527 0.18657,-0.0814 0.22656,-0.0996 0.02,-0.009 0.0327,-0.0143 0.0508,-0.0234 0.009,-0.005 0.0196,-0.0102 0.0391,-0.0215 0.01,-0.006 0.0429,-0.0253 0.043,-0.0254 9e-5,-7e-5 0.11132,-0.0977 0.11132,-0.0977 a 0.66145998,0.66145998 0 0 0 -0.0352,-0.93359 0.66145998,0.66145998 0 0 0 -0.93555,0.0352 c 0,0 0.11143,-0.0958 0.11133,-0.0957 -1e-4,7e-5 0.0319,-0.022 0.041,-0.0273 0.0151,-0.009 0.0205,-0.0112 0.0254,-0.0137 -0.0228,0.0104 -0.0812,0.0373 -0.19921,0.0879 -0.23601,0.10124 -0.71122,0.30123 -1.65235,0.69141 -1.41828,0.58801 -6.02921,2.53372 -11.3457,2.20898 -4.3557,-0.26605 -6.77336,-1.14298 -10.03711,-2.92578 -3.26375,-1.7828 -7.3337,-4.48458 -14.7168,-8.28125 -6.11729,-3.14573 -14.45341,-6.45745 -26.39844,-6.15429 z m -1.794922,2.47461 c -12.712604,0.61914 -26.82491,5.10495 -47.607422,15.1582 a 0.66145998,0.66145998 0 0 0 -0.306641,0.88281 0.66145998,0.66145998 0 0 0 0.882813,0.3086 c 20.709932,-10.01815 34.645794,-14.421 47.095703,-15.02735 11.530959,-0.56159 19.809959,2.44878 26.148439,5.48633 7.92959,3.80004 12.12982,6.45871 15.59766,8.33398 3.46784,1.87527 6.24009,2.959 11.05469,3.49024 5.83574,0.6439 10.57998,-1.0941 11.95312,-1.58203 0.92245,-0.32778 1.38761,-0.49706 1.62696,-0.58594 0.11967,-0.0444 0.18212,-0.0677 0.22265,-0.084 0.0203,-0.008 0.0331,-0.0135 0.0547,-0.0234 0.0108,-0.005 0.0226,-0.0108 0.0488,-0.0254 0.0131,-0.007 0.0605,-0.0371 0.0605,-0.0371 0,0 0.008,-0.006 0.008,-0.006 0,0 0.008,-0.006 0.008,-0.006 0,0 0.0234,-0.0176 0.0234,-0.0176 0,0 -0.41992,-0.51172 -0.41992,-0.51172 a 0.66145998,0.66145998 0 0 0 0.375,-0.54687 0.66145998,0.66145998 0 0 0 -0.76368,0.0703 c -0.004,-0.005 -0.0293,-0.0352 -0.0293,-0.0352 0,0 0.0234,-0.0195 0.0234,-0.0195 0,0 0.006,-0.004 0.006,-0.004 -8e-5,5e-5 0.0558,-0.036 0.0684,-0.043 0.0251,-0.014 0.0342,-0.0184 0.041,-0.0215 -0.0202,0.008 -0.075,0.0285 -0.1875,0.0703 -0.2279,0.0846 -0.68993,0.25336 -1.60938,0.58007 -1.39708,0.49644 -5.864,2.12067 -11.36523,1.51368 -4.6788,-0.51625 -7.17037,-1.50129 -10.57031,-3.33985 -3.39995,-1.83856 -7.67195,-4.53795 -15.6543,-8.36328 -6.43735,-3.08493 -14.99292,-6.18955 -26.785162,-5.61523 z m -1.767578,2.71289 c -12.624675,0.88873 -25.975521,5.60402 -45.851563,15.7207 a 0.66145998,0.66145998 0 0 0 -0.289062,0.88867 0.66145998,0.66145998 0 0 0 0.888671,0.28906 c 19.810609,-10.08337 32.982822,-14.70782 45.345704,-15.57812 11.37911,-0.80105 19.87776,1.99002 26.5293,4.9375 8.60636,3.81371 12.94874,6.41885 16.48828,8.29883 3.53955,1.87997 6.31006,3.03284 11.51563,3.82422 5.98417,0.90974 10.61785,-0.49332 11.9707,-0.89063 0.90224,-0.26497 1.35695,-0.40248 1.58985,-0.47461 0.11644,-0.0361 0.17649,-0.0566 0.21679,-0.0703 0.0202,-0.007 0.0323,-0.01 0.0566,-0.0195 0.0122,-0.005 0.0581,-0.0271 0.0586,-0.0273 2.4e-4,-1.2e-4 0.08,-0.0468 0.0801,-0.0469 0,0 0.0176,-0.0137 0.0176,-0.0137 0,0 0.0137,-0.0117 0.0137,-0.0117 0,0 0.0195,-0.0156 0.0195,-0.0156 0,0 -0.43164,-0.50195 -0.43164,-0.50195 a 0.66145998,0.66145998 0 0 0 0.24218,-0.61523 0.66145998,0.66145998 0 0 0 -0.5625,0.24414 c -0.0426,-0.0496 -0.11133,-0.12899 -0.11133,-0.12899 0,0 0.0195,-0.0176 0.0195,-0.0176 0,0 0.0137,-0.01 0.0137,-0.01 -7e-5,4e-5 0.0979,-0.0607 0.0976,-0.0605 -4.8e-4,2.5e-4 0.0423,-0.02 0.0508,-0.0234 0.0169,-0.007 0.0164,-0.007 0.008,-0.004 -0.0172,0.006 -0.0713,0.0244 -0.18164,0.0586 -0.22067,0.0683 -0.67122,0.2047 -1.57032,0.46875 -1.37636,0.40422 -5.71426,1.71599 -11.40039,0.85156 -5.08903,-0.77366 -7.60375,-1.83097 -11.09179,-3.68359 -3.48804,-1.85262 -7.91448,-4.50247 -16.57422,-8.33985 -6.75117,-2.99162 -15.51729,-5.8683 -27.15821,-5.04882 z m 6.451177,2.8457 c -2.56701,-0.14645 -5.282705,-0.11713 -8.156256,0.14062 -12.535075,1.12438 -25.161849,5.97358 -44.15625,16.00782 a 0.66145998,0.66145998 0 0 0 -0.27539,0.89257 0.66145998,0.66145998 0 0 0 0.894531,0.27735 c 18.93592,-10.00334 31.37757,-14.76013 43.654297,-15.86133 11.234541,-1.00772 19.942391,1.549 26.894541,4.37305 14.14765,5.74694 22.69087,10.99326 29.30859,12.2207 6.12724,1.13647 10.6541,0.0544 11.98828,-0.25391 0.88354,-0.20416 1.32652,-0.30974 1.55274,-0.36523 0.1131,-0.0277 0.17211,-0.0421 0.21093,-0.0527 0.0194,-0.005 0.0316,-0.009 0.0566,-0.0176 0.0125,-0.004 0.064,-0.0232 0.0645,-0.0234 2.1e-4,-1e-4 0.10151,-0.0566 0.10156,-0.0566 0,0 0.0332,-0.0234 0.0332,-0.0234 0,0 0.041,-0.0351 0.041,-0.0351 0,0 -0.44531,-0.49024 -0.44531,-0.49024 a 0.66145998,0.66145998 0 0 0 -0.0117,-0.66211 0.66145998,0.66145998 0 0 0 -0.30274,0.31445 c -0.0533,-0.0587 -0.1289,-0.14257 -0.1289,-0.14257 0,0 0.041,-0.0332 0.041,-0.0332 -5e-5,4e-5 0.13303,-0.0802 0.13281,-0.0801 -4.1e-4,1.8e-4 0.045,-0.0174 0.0566,-0.0215 -0.0198,0.005 -0.064,0.0145 -0.16406,0.0391 -0.21471,0.0527 -0.65452,0.15784 -1.53515,0.36133 -1.35734,0.31365 -5.58417,1.33039 -11.45118,0.24219 -6.13942,-1.13873 -14.81718,-6.36268 -29.05078,-12.14453 -5.2889,-2.14842 -11.6525,-4.16614 -19.353513,-4.60547 z m -1.652353,3.15039 c -2.568874,-0.0954 -5.270564,-0.019 -8.109371,0.28125 -12.445671,1.31656 -24.398008,6.19817 -42.554688,15.98828 a 0.66145998,0.66145998 0 0 0 -0.267578,0.89453 0.66145998,0.66145998 0 0 0 0.894531,0.26953 c 18.104829,-9.76215 29.87259,-14.54602 42.066407,-15.83593 11.100962,-1.17431 20.004635,1.13085 27.238285,3.79687 14.68326,5.41163 23.78708,10.68083 30.5293,12.09766 6.26306,1.31614 10.69155,0.53558 12.00976,0.3125 0.86684,-0.1467 1.29827,-0.22229 1.51758,-0.26172 0.10966,-0.0197 0.16561,-0.0299 0.20117,-0.0371 0.0178,-0.004 0.0288,-0.006 0.0508,-0.0117 0.011,-0.003 0.0602,-0.0174 0.0605,-0.0176 1.9e-4,-6e-5 0.1191,-0.0566 0.11914,-0.0566 0,0 0.0469,-0.0293 0.0469,-0.0293 0,0 -0.38281,-0.53906 -0.38281,-0.53906 0,0 -0.38282,-0.53906 -0.38282,-0.53906 -4e-5,2e-5 0.16621,-0.086 0.16602,-0.0859 -3.4e-4,1.2e-4 0.0372,-0.0118 0.0508,-0.0156 -0.02,0.004 -0.0648,0.0114 -0.16406,0.0293 -0.21037,0.0378 -0.63929,0.11345 -1.50391,0.25977 -1.34112,0.22696 -5.47562,0.96653 -11.51562,-0.30273 -6.31921,-1.32794 -15.56904,-6.59887 -30.34571,-12.04493 -5.49945,-2.02686 -12.01797,-3.86606 -19.724616,-4.15234 z m -1.511715,3.51758 c -2.569753,-0.0494 -5.257675,0.0679 -8.064453,0.39844 -12.35871,1.45561 -23.705525,6.25278 -41.087891,15.62109 a 0.66145998,0.66145998 0 0 0 -0.267578,0.89648 0.66145998,0.66145998 0 0 0 0.894531,0.26953 c 17.336752,-9.34372 28.500187,-14.04551 40.617188,-15.47265 10.982161,-1.29348 20.059334,0.74457 27.548834,3.2168 15.16754,5.00669 24.78606,10.18418 31.64258,11.73046 6.38928,1.44092 10.72342,0.9349 12.02929,0.79102 0.85264,-0.0939 1.27601,-0.14156 1.48829,-0.16602 0.10613,-0.0122 0.15929,-0.0196 0.18945,-0.0234 0.0151,-0.002 0.0238,-0.002 0.0371,-0.004 0.007,-9.9e-4 0.0368,-0.008 0.0371,-0.008 0,0 -0.13281,-0.64844 -0.13281,-0.64844 0,0 -0.1307,-0.64652 -0.13086,-0.64648 -3.3e-4,6e-5 0.0276,-0.005 0.0312,-0.006 0.007,-0.001 0.003,-0.001 -0.008,0 -0.0209,0.003 -0.0699,0.01 -0.17382,0.0215 -0.20789,0.0239 -0.63086,0.0702 -1.48243,0.16406 -1.32872,0.1464 -5.39225,0.63489 -11.59375,-0.76367 -6.48836,-1.46326 -16.25338,-6.65802 -31.51953,-11.69726 -5.68987,-1.87819 -12.34543,-3.52557 -20.054691,-3.67383 z m -1.332031,3.92383 c -2.56946,-0.01 -5.243236,0.13771 -8.021485,0.48437 -12.276938,1.53188 -23.101518,6.12415 -39.792968,14.87695 a 0.66145998,0.66145998 0 0 0 -0.277344,0.89258 0.66145998,0.66145998 0 0 0 0.892578,0.2793 c 16.651708,-8.73196 27.292059,-13.2328 39.341797,-14.73633 10.882028,-1.35782 20.109054,0.40496 27.822274,2.64649 15.58745,4.52984 25.65917,9.48766 32.61718,11.0957 6.50304,1.50289 10.75479,1.23305 12.05274,1.16015 0.8415,-0.0473 1.25752,-0.069 1.46289,-0.0801 0.10155,-0.005 0.15085,-0.009 0.17383,-0.01 0,0 -0.002,-0.0642 -0.002,-0.082 a 0.66145998,0.66145998 0 0 0 0.10352,0.0723 c 0,0 -0.10937,-0.65235 -0.10937,-0.65235 0,0 0.002,-0.66219 -0.006,-0.66211 -0.0155,1.6e-4 -0.0175,0.002 -0.0215,0.002 -0.008,3e-4 -0.0139,-6.7e-4 -0.0273,0 -0.0269,0.001 -0.078,0.004 -0.18164,0.01 -0.20735,0.0112 -0.62482,0.0348 -1.4668,0.082 -1.32096,0.0742 -5.33366,0.33815 -11.68164,-1.1289 -6.64291,-1.53522 -16.85642,-6.51892 -32.54492,-11.07813 -5.85504,-1.70152 -12.62561,-3.14283 -20.333992,-3.17187 z m -1.115235,4.37109 c -2.567817,0.0225 -5.228395,0.18855 -7.982422,0.53516 -12.203745,1.53591 -22.596622,5.78909 -38.701171,13.71679 a 0.66145998,0.66145998 0 0 0 -0.300782,0.88477 0.66145998,0.66145998 0 0 0 0.884766,0.30273 c 16.070484,-7.91093 26.28502,-12.082 38.28125,-13.59179 10.804654,-1.35984 20.154236,0.11317 28.052736,2.08593 15.93003,3.97875 26.37438,8.5757 33.41797,10.16993 6.60082,1.49401 10.78725,1.42254 12.08203,1.41015 0.83401,-0.008 1.24634,-0.01 1.44532,-0.01 0.0995,1.2e-4 0.14664,0.002 0.16015,0.002 0.007,1.6e-4 0.01,-9e-5 -0.0137,-0.002 -0.0118,-9.3e-4 -0.0979,-0.0157 -0.0977,-0.0156 0,0 -0.0137,-0.002 -0.0137,-0.002 0,0 -0.0137,-0.004 -0.0137,-0.004 0,0 -0.0293,-0.01 -0.0293,-0.01 0,0 -0.0176,-0.006 -0.0176,-0.006 0,0 -0.0859,-0.0391 -0.0859,-0.0391 0,0 0,0.002 0,0.002 0,0 -0.0801,-0.0508 -0.0801,-0.0508 0,0 0.0643,-0.0864 0.10547,-0.14258 a 0.66145998,0.66145998 0 0 0 0.55859,0.21094 c 0,0 -0.27343,-0.60157 -0.27343,-0.60157 0,0 0.39257,-0.5332 0.39257,-0.5332 0,0 -0.0801,-0.0508 -0.0801,-0.0508 0,0 -0.0879,-0.0391 -0.0879,-0.0391 0,0 -0.0156,-0.006 -0.0156,-0.006 0,0 -0.0312,-0.01 -0.0312,-0.01 0,0 -0.008,-0.002 -0.008,-0.002 -2.7e-4,-6e-5 -0.10459,-0.0184 -0.11914,-0.0195 -0.0291,-0.002 -0.0392,-0.002 -0.0566,-0.002 -0.035,-8.5e-4 -0.0871,-0.002 -0.19141,-0.002 -0.2087,-2.5e-4 -0.62267,0.002 -1.45898,0.01 -1.31826,0.0126 -5.30347,0.0888 -11.7793,-1.37696 -6.77934,-1.53442 -17.35856,-6.16031 -33.38867,-10.16406 -5.98991,-1.49606 -12.851243,-2.718 -20.554697,-2.65039 z m -0.855468,4.85547 c -2.564631,0.046 -5.216195,0.21834 -7.951172,0.54687 -12.143475,1.45871 -22.208388,5.22804 -37.851563,12.10547 a 0.66145998,0.66145998 0 0 0 -0.33789,0.87305 0.66145998,0.66145998 0 0 0 0.871093,0.33789 c 15.614963,-6.86503 25.51484,-10.56703 37.476563,-12.00391 10.754395,-1.29185 20.187204,-0.11596 28.226564,1.54883 16.18236,3.35105 26.90977,7.43474 34.01954,8.93164 6.67808,1.40601 10.82524,1.4843 12.12109,1.51953 0.83072,0.0226 1.23804,0.0377 1.43164,0.0469 0.0968,0.005 0.14271,0.007 0.14648,0.008 0.001,9e-5 -0.0177,-0.003 -0.0254,-0.004 -0.007,-8e-4 -4e-5,3e-4 -0.0215,-0.004 -0.0117,-0.002 -0.0511,-0.0118 -0.0508,-0.0117 3.4e-4,1e-4 -0.12317,-0.0489 -0.12305,-0.0488 6e-5,3e-5 -0.13674,-0.0938 -0.13672,-0.0937 0,0 -0.0566,-0.0566 -0.0566,-0.0566 0,0 -0.0351,-0.0449 -0.0351,-0.0449 0,0 -0.003,-0.006 -0.004,-0.008 -0.007,-0.0114 -0.0391,-0.0566 -0.0391,-0.0566 0,0 -0.084,-0.38086 -0.084,-0.38086 0,0 0.65821,0.0527 0.65821,0.0527 0,0 0.66015,0.0527 0.66015,0.0527 0,0 -0.084,-0.37891 -0.084,-0.37891 0,0 -0.043,-0.0645 -0.043,-0.0645 0,0 -0.0352,-0.0449 -0.0352,-0.0449 -2e-5,-2e-5 -0.19525,-0.15231 -0.19531,-0.15234 -1.2e-4,-6e-5 -0.12271,-0.0487 -0.12305,-0.0488 -3.4e-4,-9e-5 -0.0417,-0.009 -0.0547,-0.0117 -0.052,-0.0102 -0.0639,-0.01 -0.0859,-0.0117 -0.0442,-0.004 -0.0992,-0.009 -0.20508,-0.0137 -0.21181,-0.01 -0.62394,-0.0242 -1.45898,-0.0469 -1.32016,-0.0359 -5.3041,-0.10669 -11.88477,-1.49219 -6.89454,-1.45158 -17.74613,-5.56093 -34.02344,-8.93164 -6.08959,-1.26103 -13.007283,-2.25125 -20.701175,-2.11328 z m 68.234385,13.25781 a 0.66145998,0.66145998 0 0 0 -0.53516,0.38477 0.66145998,0.66145998 0 0 0 0.42773,0.26757 0.66145998,0.66145998 0 0 0 0.49219,-0.11328 z m -68.794932,-7.87695 c -2.559684,0.0595 -5.201712,0.22114 -7.923828,0.51172 -12.102481,1.29188 -21.946625,4.42675 -37.277344,10.01367 a 0.66145998,0.66145998 0 0 0 -0.396485,0.84765 0.66145998,0.66145998 0 0 0 0.84961,0.39454 c 15.309169,-5.57907 25.011373,-8.66543 36.964844,-9.94141 10.736188,-1.14604 20.209365,-0.27151 28.339845,1.04492 16.3316,2.6443 27.23795,6.04354 34.39063,7.35156 6.7275,1.23027 10.86806,1.40734 12.16601,1.47461 0.82913,0.043 1.23907,0.0704 1.42969,0.0859 0.0953,0.008 0.1386,0.0142 0.13477,0.0137 -0.002,-2.7e-4 -0.009,0.001 -0.0684,-0.0156 -0.0148,-0.004 -0.0629,-0.0216 -0.0625,-0.0215 3.7e-4,1.5e-4 -0.12319,-0.0665 -0.12305,-0.0664 1e-5,0 -0.008,-0.007 -0.01,-0.008 a 0.66145998,0.66145998 0 0 0 0.91992,-0.15429 c 0,0 -0.53906,-0.38477 -0.53906,-0.38477 a 0.66145998,0.66145998 0 0 0 -0.38282,0.53711 c -0.0185,-0.0157 -0.0977,-0.0821 -0.0976,-0.082 0,0 0.48047,-0.45508 0.48047,-0.45508 0,0 -0.57227,0.33008 -0.57227,0.33008 0,0 -0.0195,-0.0352 -0.0195,-0.0352 0,0 -0.0527,-0.15039 -0.0527,-0.15039 0,0 -0.0156,-0.11914 -0.0156,-0.11914 0,0 0.66016,-0.0254 0.66016,-0.0254 -4e-5,-3e-5 0.37116,-0.54682 0.37109,-0.54687 -1.4e-4,-1e-4 -0.12463,-0.0663 -0.125,-0.0664 -3.7e-4,-1.5e-4 -0.0483,-0.0188 -0.0645,-0.0234 -0.0646,-0.0187 -0.083,-0.0196 -0.10938,-0.0234 -0.0527,-0.008 -0.10821,-0.0126 -0.2168,-0.0215 -0.21716,-0.0177 -0.63321,-0.0446 -1.46875,-0.0879 -1.32359,-0.0686 -5.34045,-0.23795 -11.99609,-1.45508 -6.98574,-1.27749 -18.00163,-4.6994 -34.41797,-7.35742 -6.14959,-0.9957 -13.088523,-1.74282 -20.767582,-1.56445 z m 68.794932,11.14648 c 0,0 0.6621,-0.0254 0.6621,-0.0254 0,0 -0.0156,-0.11914 -0.0156,-0.11914 0,0 -0.0527,-0.15039 -0.0527,-0.15039 0,0 -0.0195,-0.0352 -0.0195,-0.0352 0,0 -0.57421,0.33008 -0.57421,0.33008 z m -61.609383,-5.17969 c -4.775449,-0.14401 -9.882488,-0.0556 -15.316409,0.40625 -12.093624,1.02795 -21.816773,3.36047 -37.013672,7.40235 a 0.66145998,0.66145998 0 0 0 -0.470703,0.81055 0.66145998,0.66145998 0 0 0 0.810547,0.46875 c 15.18367,-4.03836 24.802023,-6.34456 36.78711,-7.36329 10.756773,-0.91431 20.21628,-0.35021 28.38477,0.57618 16.36504,1.85596 27.33381,4.39249 34.50195,5.41211 6.73109,0.95744 10.93345,1.17937 12.22071,1.25976 0.83634,0.0522 1.24899,0.0863 1.4375,0.10547 0.0943,0.01 0.13494,0.0159 0.12304,0.0137 -0.006,-0.001 -0.0173,0.002 -0.0898,-0.0254 -0.0181,-0.007 -0.0726,-0.0334 -0.0723,-0.0332 1e-5,0 -0.002,-0.002 -0.002,-0.002 a 0.66145998,0.66145998 0 0 0 0.89258,-0.26953 c 0,0 -0.58398,-0.3125 -0.58398,-0.3125 a 0.66145998,0.66145998 0 0 0 -0.3125,0.58008 c -0.0103,-0.007 -0.12709,-0.0861 -0.12696,-0.0859 7e-5,7e-5 -0.0957,-0.10746 -0.0957,-0.10742 0,0 0.53516,-0.38672 0.53516,-0.38672 0,0 -0.60547,0.26563 -0.60547,0.26563 0,0 -0.0117,-0.0312 -0.0117,-0.0312 0,0 -0.0332,-0.12305 -0.0332,-0.12305 0,0 -0.01,-0.0898 -0.01,-0.0898 0,0 0.66016,-0.0215 0.66016,-0.0215 -4e-5,-4e-5 0.43952,-0.49603 0.43945,-0.49609 -1.4e-4,-1.3e-4 -0.13244,-0.0916 -0.13281,-0.0918 -3.8e-4,-1.9e-4 -0.0566,-0.0258 -0.0762,-0.0332 -0.0782,-0.0294 -0.10217,-0.0314 -0.13281,-0.0371 -0.0613,-0.0114 -0.12073,-0.0179 -0.23242,-0.0293 -0.22338,-0.0227 -0.64349,-0.0566 -1.48828,-0.10937 -1.31512,-0.0821 -5.43374,-0.29738 -12.11719,-1.24805 -7.05053,-1.00288 -18.10573,-3.55426 -34.53906,-5.41797 -4.11118,-0.46625 -8.55463,-0.84231 -13.330083,-0.98633 z m 61.609383,8.44922 c 0,0 0.6621,-0.0234 0.6621,-0.0234 0,0 -0.01,-0.0898 -0.01,-0.0898 0,0 -0.0332,-0.12304 -0.0332,-0.12304 0,0 -0.0137,-0.0312 -0.0137,-0.0312 0,0 -0.60546,0.26757 -0.60546,0.26757 z m -61.500003,-1.96093 c -4.740875,-0.0515 -9.818427,0.0342 -15.265632,0.33007 -12.170314,0.66105 -21.787756,2.01449 -37.09961,4.24414 a 0.66145998,0.66145998 0 0 0 -0.558594,0.75 0.66145998,0.66145998 0 0 0 0.748047,0.56055 c 15.309287,-2.22928 24.87015,-3.57658 36.980469,-4.23437 10.832716,-0.5884 20.197213,-0.33497 28.357433,0.1582 16.27008,0.9833 27.17065,2.46202 34.32226,3.08594 6.57287,0.57342 11.13264,0.79107 12.2832,0.85742 0.85023,0.049 1.26878,0.0835 1.45703,0.10351 0.0941,0.01 0.13636,0.0177 0.11719,0.0137 -0.008,-0.002 -0.0419,-0.0117 -0.0879,-0.0293 a 0.66145998,0.66145998 0 0 0 0.85742,-0.35352 c 0,0 -0.61132,-0.25781 -0.61132,-0.25781 a 0.66145998,0.66145998 0 0 0 -0.25391,0.60938 c -0.009,-0.004 -0.004,-6.4e-4 -0.0156,-0.006 -0.0208,-0.009 -0.0805,-0.0432 -0.0801,-0.043 3.8e-4,2.4e-4 -0.13296,-0.10758 -0.13282,-0.10742 1.5e-4,1.5e-4 -0.15627,-0.28328 -0.15625,-0.28321 0,0 -0.01,-0.0391 -0.01,-0.0391 0,0 -0.006,-0.0312 -0.006,-0.0312 0,0 -0.006,-0.0898 -0.006,-0.0898 0,0 0.66016,-0.01 0.66016,-0.01 0,0 0.6621,-0.008 0.6621,-0.008 0,0 -0.008,-0.0898 -0.008,-0.0898 0,0 -0.006,-0.0312 -0.006,-0.0312 -2e-5,-8e-5 -0.16586,-0.32407 -0.16601,-0.32422 -1.5e-4,-1.6e-4 -0.13243,-0.10914 -0.13282,-0.10938 -3.8e-4,-2.4e-4 -0.0618,-0.0331 -0.084,-0.043 -0.0888,-0.0393 -0.11954,-0.0416 -0.1543,-0.0488 -0.0695,-0.0145 -0.13053,-0.0229 -0.24609,-0.0352 -0.23112,-0.0245 -0.66084,-0.0598 -1.52148,-0.10938 -1.18473,-0.0683 -5.69515,-0.28217 -12.24415,-0.85351 -7.08687,-0.61827 -18.0431,-2.10387 -34.35742,-3.08985 -4.09696,-0.2476 -8.50132,-0.43487 -13.242183,-0.48632 z m 13.560543,7.11914 c -8.47565,-0.0123 -16.922782,0.0445 -28.263675,0.20703 -9.654111,0.13835 -24.560436,0.41919 -37.572266,0.50976 a 0.66145998,0.66145998 0 0 0 -0.65625,0.66602 0.66145998,0.66145998 0 0 0 0.666016,0.6582 c 13.023878,-0.0907 27.932178,-0.37345 37.580078,-0.51172 11.335896,-0.16245 19.775677,-0.21934 28.244147,-0.20703 13.81093,0.0201 28.96105,0.27366 33.82422,0.35156 7.08422,0.11348 10.60913,0.20455 12.35547,0.26758 0.87316,0.0315 1.30307,0.057 1.5,0.0723 0.0985,0.008 0.14348,0.0138 0.13086,0.0117 -0.006,-0.001 -0.0201,0.002 -0.0957,-0.0254 -0.0121,-0.004 -0.0306,-0.0132 -0.0488,-0.0215 a 0.66145998,0.66145998 0 0 0 0.875,-0.32031 c 0,0 -0.5996,-0.2793 -0.5996,-0.2793 a 0.66145998,0.66145998 0 0 0 -0.2793,0.59766 c -0.008,-0.004 -0.0236,-0.01 -0.0234,-0.01 4e-4,2.1e-4 -0.13297,-0.0919 -0.13281,-0.0918 8e-5,6e-5 -0.0977,-0.10552 -0.0977,-0.10547 4e-5,5e-5 -0.0938,-0.18168 -0.0937,-0.18164 0,0 -0.0234,-0.0937 -0.0234,-0.0937 0,0 -0.01,-0.0898 -0.01,-0.0898 0,0 0.66016,-0.0254 0.66016,-0.0254 0,0 0.6621,-0.0254 0.6621,-0.0254 0,0 -0.004,-0.0469 -0.004,-0.0469 -1e-5,-4e-5 -0.12496,-0.31831 -0.125,-0.31836 -4e-5,-5e-5 -0.0956,-0.1054 -0.0957,-0.10547 -1.6e-4,-1.4e-4 -0.13437,-0.0936 -0.13477,-0.0937 -4e-4,-2e-4 -0.0597,-0.0258 -0.0801,-0.0332 -0.0815,-0.0296 -0.10646,-0.0298 -0.13867,-0.0352 -0.0644,-0.0106 -0.12729,-0.0183 -0.24414,-0.0273 -0.23371,-0.0181 -0.6726,-0.0424 -1.55469,-0.0742 -1.76417,-0.0637 -5.29225,-0.15403 -12.38086,-0.26758 -4.86138,-0.0779 -20.01811,-0.33147 -33.84375,-0.35156 z"
       id="path35" />
  </g>
</svg>
