<svg xmlns="http://www.w3.org/2000/svg" version="1.1" xmlns:xlink="http://www.w3.org/1999/xlink" xmlns:svgjs="http://svgjs.dev/svgjs" viewBox="0 0 800 800" opacity="1" width="800" height="800"><g stroke-width="2.25" stroke="#1b1b1bff" fill="none"><rect width="100" height="5.421052631578947" x="-50" y="-2.7105263157894735" stroke="none" fill="#1b1b1bff" rx="2.7105263157894735" transform="rotate(45, 0, 0)"></rect><rect width="5.421052631578947" height="100" x="-2.7105263157894735" y="-50" stroke="none" fill="#1b1b1bff" rx="2.7105263157894735" transform="rotate(45, 0, 0)"></rect><rect width="100" height="5.421052631578947" x="150" y="-2.7105263157894735" stroke="none" fill="#1b1b1bff" rx="2.7105263157894735" transform="rotate(45, 200, 0)"></rect><rect width="5.421052631578947" height="100" x="197.28947368421052" y="-50" stroke="none" fill="#1b1b1bff" rx="2.7105263157894735" transform="rotate(45, 200, 0)"></rect><rect width="100" height="5.421052631578947" x="350" y="-2.7105263157894735" stroke="none" fill="#1b1b1bff" rx="2.7105263157894735" transform="rotate(45, 400, 0)"></rect><rect width="5.421052631578947" height="100" x="397.2894736842105" y="-50" stroke="none" fill="#1b1b1bff" rx="2.7105263157894735" transform="rotate(45, 400, 0)"></rect><rect width="100" height="5.421052631578947" x="550" y="-2.7105263157894735" stroke="none" fill="#1b1b1bff" rx="2.7105263157894735" transform="rotate(45, 600, 0)"></rect><rect width="5.421052631578947" height="100" x="597.2894736842105" y="-50" stroke="none" fill="#1b1b1bff" rx="2.7105263157894735" transform="rotate(45, 600, 0)"></rect><rect width="100" height="5.421052631578947" x="750" y="-2.7105263157894735" stroke="none" fill="#1b1b1bff" rx="2.7105263157894735" transform="rotate(45, 800, 0)"></rect><rect width="5.421052631578947" height="100" x="797.2894736842105" y="-50" stroke="none" fill="#1b1b1bff" rx="2.7105263157894735" transform="rotate(45, 800, 0)"></rect><rect width="100" height="5.421052631578947" x="-50" y="197.28947368421052" stroke="none" fill="#1b1b1bff" rx="2.7105263157894735" transform="rotate(45, 0, 200)"></rect><rect width="5.421052631578947" height="100" x="-2.7105263157894735" y="150" stroke="none" fill="#1b1b1bff" rx="2.7105263157894735" transform="rotate(45, 0, 200)"></rect><rect width="100" height="5.421052631578947" x="150" y="197.28947368421052" stroke="none" fill="#1b1b1bff" rx="2.7105263157894735" transform="rotate(45, 200, 200)"></rect><rect width="5.421052631578947" height="100" x="197.28947368421052" y="150" stroke="none" fill="#1b1b1bff" rx="2.7105263157894735" transform="rotate(45, 200, 200)"></rect><rect width="100" height="5.421052631578947" x="350" y="197.28947368421052" stroke="none" fill="#1b1b1bff" rx="2.7105263157894735" transform="rotate(45, 400, 200)"></rect><rect width="5.421052631578947" height="100" x="397.2894736842105" y="150" stroke="none" fill="#1b1b1bff" rx="2.7105263157894735" transform="rotate(45, 400, 200)"></rect><rect width="100" height="5.421052631578947" x="550" y="197.28947368421052" stroke="none" fill="#1b1b1bff" rx="2.7105263157894735" transform="rotate(45, 600, 200)"></rect><rect width="5.421052631578947" height="100" x="597.2894736842105" y="150" stroke="none" fill="#1b1b1bff" rx="2.7105263157894735" transform="rotate(45, 600, 200)"></rect><rect width="100" height="5.421052631578947" x="750" y="197.28947368421052" stroke="none" fill="#1b1b1bff" rx="2.7105263157894735" transform="rotate(45, 800, 200)"></rect><rect width="5.421052631578947" height="100" x="797.2894736842105" y="150" stroke="none" fill="#1b1b1bff" rx="2.7105263157894735" transform="rotate(45, 800, 200)"></rect><rect width="100" height="5.421052631578947" x="-50" y="397.2894736842105" stroke="none" fill="#1b1b1bff" rx="2.7105263157894735" transform="rotate(45, 0, 400)"></rect><rect width="5.421052631578947" height="100" x="-2.7105263157894735" y="350" stroke="none" fill="#1b1b1bff" rx="2.7105263157894735" transform="rotate(45, 0, 400)"></rect><rect width="100" height="5.421052631578947" x="150" y="397.2894736842105" stroke="none" fill="#1b1b1bff" rx="2.7105263157894735" transform="rotate(45, 200, 400)"></rect><rect width="5.421052631578947" height="100" x="197.28947368421052" y="350" stroke="none" fill="#1b1b1bff" rx="2.7105263157894735" transform="rotate(45, 200, 400)"></rect><rect width="100" height="5.421052631578947" x="350" y="397.2894736842105" stroke="none" fill="#1b1b1bff" rx="2.7105263157894735" transform="rotate(45, 400, 400)"></rect><rect width="5.421052631578947" height="100" x="397.2894736842105" y="350" stroke="none" fill="#1b1b1bff" rx="2.7105263157894735" transform="rotate(45, 400, 400)"></rect><rect width="100" height="5.421052631578947" x="550" y="397.2894736842105" stroke="none" fill="#1b1b1bff" rx="2.7105263157894735" transform="rotate(45, 600, 400)"></rect><rect width="5.421052631578947" height="100" x="597.2894736842105" y="350" stroke="none" fill="#1b1b1bff" rx="2.7105263157894735" transform="rotate(45, 600, 400)"></rect><rect width="100" height="5.421052631578947" x="750" y="397.2894736842105" stroke="none" fill="#1b1b1bff" rx="2.7105263157894735" transform="rotate(45, 800, 400)"></rect><rect width="5.421052631578947" height="100" x="797.2894736842105" y="350" stroke="none" fill="#1b1b1bff" rx="2.7105263157894735" transform="rotate(45, 800, 400)"></rect><rect width="100" height="5.421052631578947" x="-50" y="597.2894736842105" stroke="none" fill="#1b1b1bff" rx="2.7105263157894735" transform="rotate(45, 0, 600)"></rect><rect width="5.421052631578947" height="100" x="-2.7105263157894735" y="550" stroke="none" fill="#1b1b1bff" rx="2.7105263157894735" transform="rotate(45, 0, 600)"></rect><rect width="100" height="5.421052631578947" x="150" y="597.2894736842105" stroke="none" fill="#1b1b1bff" rx="2.7105263157894735" transform="rotate(45, 200, 600)"></rect><rect width="5.421052631578947" height="100" x="197.28947368421052" y="550" stroke="none" fill="#1b1b1bff" rx="2.7105263157894735" transform="rotate(45, 200, 600)"></rect><rect width="100" height="5.421052631578947" x="350" y="597.2894736842105" stroke="none" fill="#1b1b1bff" rx="2.7105263157894735" transform="rotate(45, 400, 600)"></rect><rect width="5.421052631578947" height="100" x="397.2894736842105" y="550" stroke="none" fill="#1b1b1bff" rx="2.7105263157894735" transform="rotate(45, 400, 600)"></rect><rect width="100" height="5.421052631578947" x="550" y="597.2894736842105" stroke="none" fill="#1b1b1bff" rx="2.7105263157894735" transform="rotate(45, 600, 600)"></rect><rect width="5.421052631578947" height="100" x="597.2894736842105" y="550" stroke="none" fill="#1b1b1bff" rx="2.7105263157894735" transform="rotate(45, 600, 600)"></rect><rect width="100" height="5.421052631578947" x="750" y="597.2894736842105" stroke="none" fill="#1b1b1bff" rx="2.7105263157894735" transform="rotate(45, 800, 600)"></rect><rect width="5.421052631578947" height="100" x="797.2894736842105" y="550" stroke="none" fill="#1b1b1bff" rx="2.7105263157894735" transform="rotate(45, 800, 600)"></rect><rect width="100" height="5.421052631578947" x="-50" y="797.2894736842105" stroke="none" fill="#1b1b1bff" rx="2.7105263157894735" transform="rotate(45, 0, 800)"></rect><rect width="5.421052631578947" height="100" x="-2.7105263157894735" y="750" stroke="none" fill="#1b1b1bff" rx="2.7105263157894735" transform="rotate(45, 0, 800)"></rect><rect width="100" height="5.421052631578947" x="150" y="797.2894736842105" stroke="none" fill="#1b1b1bff" rx="2.7105263157894735" transform="rotate(45, 200, 800)"></rect><rect width="5.421052631578947" height="100" x="197.28947368421052" y="750" stroke="none" fill="#1b1b1bff" rx="2.7105263157894735" transform="rotate(45, 200, 800)"></rect><rect width="100" height="5.421052631578947" x="350" y="797.2894736842105" stroke="none" fill="#1b1b1bff" rx="2.7105263157894735" transform="rotate(45, 400, 800)"></rect><rect width="5.421052631578947" height="100" x="397.2894736842105" y="750" stroke="none" fill="#1b1b1bff" rx="2.7105263157894735" transform="rotate(45, 400, 800)"></rect><rect width="100" height="5.421052631578947" x="550" y="797.2894736842105" stroke="none" fill="#1b1b1bff" rx="2.7105263157894735" transform="rotate(45, 600, 800)"></rect><rect width="5.421052631578947" height="100" x="597.2894736842105" y="750" stroke="none" fill="#1b1b1bff" rx="2.7105263157894735" transform="rotate(45, 600, 800)"></rect><rect width="100" height="5.421052631578947" x="750" y="797.2894736842105" stroke="none" fill="#1b1b1bff" rx="2.7105263157894735" transform="rotate(45, 800, 800)"></rect><rect width="5.421052631578947" height="100" x="797.2894736842105" y="750" stroke="none" fill="#1b1b1bff" rx="2.7105263157894735" transform="rotate(45, 800, 800)"></rect></g></svg>